<?xml version="1.0" encoding="UTF-8" standalone="no"?>
<!-- Created with Inkscape (http://www.inkscape.org/) -->

<svg
   version="1.1"
   id="svg2"
   width="1560.76"
   height="780.54669"
   viewBox="0 0 1560.76 780.54669"
   sodipodi:docname="PAWS AND CLAWS_HORIZONTAL-PRIMARY.eps"
   xmlns:inkscape="http://www.inkscape.org/namespaces/inkscape"
   xmlns:sodipodi="http://sodipodi.sourceforge.net/DTD/sodipodi-0.dtd"
   xmlns="http://www.w3.org/2000/svg"
   xmlns:svg="http://www.w3.org/2000/svg">
  <defs
     id="defs6" />
  <sodipodi:namedview
     id="namedview4"
     pagecolor="#ffffff"
     bordercolor="#000000"
     borderopacity="0.25"
     inkscape:showpageshadow="2"
     inkscape:pageopacity="0.0"
     inkscape:pagecheckerboard="0"
     inkscape:deskcolor="#d1d1d1" />
  <g
     id="g8"
     inkscape:groupmode="layer"
     inkscape:label="ink_ext_XXXXXX"
     transform="matrix(1.3333333,0,0,-1.3333333,0,780.54667)">
    <g
       id="g10"
       transform="scale(0.1)">
      <path
         d="m 5778.76,3347.72 h -200.2 v 265.99 h 200.2 c 101.56,0 154.43,-47.2 154.43,-133.01 0,-85.8 -58.63,-132.98 -154.43,-132.98 z m 0,423.26 h -366.07 v -993.83 h 165.87 v 413.26 h 200.2 c 188.73,0 326.03,120.13 326.03,290.29 0,174.46 -148.71,290.28 -326.03,290.28"
         style="fill:#231f20;fill-opacity:1;fill-rule:nonzero;stroke:none"
         id="path12" />
      <path
         d="m 6646.42,3147.54 134.37,308.85 133.01,-308.85 z m -340.38,-370.39 h 178.77 l 95.81,218.8 h 397.53 l 94.42,-218.8 h 178.71 L 6780.79,3799.59 6306.04,2777.15"
         style="fill:#231f20;fill-opacity:1;fill-rule:nonzero;stroke:none"
         id="path14" />
      <path
         d="m 8781.44,3770.98 h -181.61 l -301.71,-682.09 -155.88,320.32 178.75,361.77 h -167.27 l -94.43,-193.02 -94.36,193.02 h -167.32 l 180.17,-361.77 -155.84,-320.32 -301.73,682.09 h -181.63 l 476.18,-1022.44 244.53,494.79 245.99,-494.79 476.16,1022.44"
         style="fill:#231f20;fill-opacity:1;fill-rule:nonzero;stroke:none"
         id="path16" />
      <path
         d="m 9503.78,3327.68 -194.49,75.8 c -65.78,25.75 -87.25,67.21 -87.25,108.68 0,41.49 28.59,112.96 145.88,112.96 67.21,0 134.39,-24.3 247.38,-85.78 l 78.64,143 c -112.95,61.48 -217.35,105.83 -344.63,105.83 -164.44,0 -298.87,-101.54 -298.87,-261.72 0,-145.84 80.1,-235.93 231.66,-291.7 l 154.45,-57.2 c 64.32,-24.31 114.4,-60.05 114.4,-127.27 0,-65.78 -52.91,-127.26 -157.33,-127.26 -90.09,0 -188.75,34.32 -323.16,115.82 l -78.63,-142.99 C 9126.26,2814.34 9282.1,2760 9386.51,2760 c 184.48,0 336.04,108.67 336.04,290.28 0,125.83 -64.34,217.35 -218.77,277.4"
         style="fill:#231f20;fill-opacity:1;fill-rule:nonzero;stroke:none"
         id="path18" />
      <path
         d="m 10675,2895.85 c -77.2,0 -130.1,38.61 -130.1,111.53 0,64.37 35.7,102.97 163,153 l 123,48.63 115.8,-224.51 c -165.9,-74.37 -210.2,-88.65 -271.7,-88.65 z m 446.2,430.42 -60.1,108.67 -180.2,-70.06 c -133,-44.35 -260.2,12.88 -260.2,141.57 0,92.95 68.6,144.44 154.4,144.44 41.5,0 75.8,-21.46 92.9,-52.91 l 125.9,45.76 c -40,80.06 -114.4,142.97 -218.8,142.97 -164.5,0 -308.9,-112.95 -308.9,-280.26 0,-128.69 78.7,-211.64 167.3,-241.67 l -40,-15.73 c -118.7,-47.19 -203,-128.7 -203,-243.1 0,-164.46 127.2,-245.95 281.6,-245.95 111.6,0 208.8,40.04 343.3,107.25 l 52.8,-90.1 h 157.4 l -264.6,484.79 160.2,64.33"
         style="fill:#231f20;fill-opacity:1;fill-rule:nonzero;stroke:none"
         id="path20" />
      <path
         d="m 6317.88,1527.7 -141.58,110.09 c -57.17,-64.34 -153.01,-124.39 -250.24,-124.39 -195.91,0 -341.73,155.88 -341.73,351.75 0,193.07 171.56,350.36 341.73,350.36 100.14,0 177.35,-51.48 237.41,-117.25 l 132.95,105.83 c -77.21,101.51 -203.03,174.45 -370.36,174.45 -288.84,0 -513.37,-243.11 -513.37,-513.39 0,-290.28 248.86,-514.77 513.37,-514.77 158.72,0 287.45,68.64 391.82,177.32"
         style="fill:#231f20;fill-opacity:1;fill-rule:nonzero;stroke:none"
         id="path22" />
      <path
         d="m 6944.31,2361.37 h -165.86 v -993.84 h 629.16 v 157.31 h -463.3 v 836.53"
         style="fill:#231f20;fill-opacity:1;fill-rule:nonzero;stroke:none"
         id="path24" />
      <path
         d="m 8078.37,1737.91 134.43,308.87 132.97,-308.87 z m -340.33,-370.38 h 178.77 l 95.78,218.81 h 397.54 l 94.35,-218.81 h 178.77 L 8212.8,2389.97 7738.04,1367.53"
         style="fill:#231f20;fill-opacity:1;fill-rule:nonzero;stroke:none"
         id="path26" />
      <path
         d="m 9775.44,1679.28 -155.92,320.31 178.77,361.78 h -167.28 l -94.4,-193.04 -94.35,193.04 h -167.35 l 180.22,-361.78 -155.9,-320.31 -301.7,682.09 h -181.62 l 476.17,-1022.44 244.53,494.77 245.96,-494.77 476.23,1022.44 h -181.7 l -301.66,-682.09"
         style="fill:#231f20;fill-opacity:1;fill-rule:nonzero;stroke:none"
         id="path28" />
      <path
         d="m 11006.8,1918.06 -194.5,75.81 c -65.7,25.74 -87.2,67.2 -87.2,108.67 0,41.48 28.6,112.97 145.8,112.97 67.3,0 134.5,-24.31 247.4,-85.79 l 78.7,142.99 c -113,61.5 -217.4,105.83 -344.6,105.83 -164.5,0 -298.9,-101.53 -298.9,-261.71 0,-145.85 80.1,-235.93 231.7,-291.7 l 154.4,-57.2 c 64.4,-24.31 114.4,-60.05 114.4,-127.27 0,-65.79 -52.9,-127.26 -157.3,-127.26 -90.1,0 -188.8,34.33 -323.2,115.82 l -78.6,-142.99 c 134.4,-81.51 290.3,-135.85 394.6,-135.85 184.5,0 336.1,108.67 336.1,290.28 0,125.83 -64.4,217.35 -218.8,277.4"
         style="fill:#231f20;fill-opacity:1;fill-rule:nonzero;stroke:none"
         id="path30" />
      <path
         d="m 5569.48,583.859 101.76,242.68 101.7,-242.68 z M 5412.69,369.512 h 66.69 l 65.92,157.629 h 251.88 l 65.88,-157.629 h 66.7 L 5671.24,965.809 5412.69,369.512"
         style="fill:#231f20;fill-opacity:1;fill-rule:nonzero;stroke:none"
         id="path32" />
      <path
         d="m 6349.27,426.238 h -120.9 v 466.184 h 120.9 c 127.63,0 226.03,-111.75 226.03,-232.672 0,-127.609 -105.06,-233.512 -226.03,-233.512 z m 0,522.891 H 6168.33 V 369.512 h 180.94 c 164.31,0 289.39,135.109 289.39,290.238 0,162.609 -136.74,289.379 -289.39,289.379"
         style="fill:#231f20;fill-opacity:1;fill-rule:nonzero;stroke:none"
         id="path34" />
      <path
         d="m 7151.1,419.57 c -131.73,0 -236.81,108.41 -236.81,240.18 0,130.93 105.08,239.34 236.81,239.34 130.98,0 236.06,-108.41 236.06,-239.34 0,-131.77 -105.08,-240.18 -236.06,-240.18 z m 0,539.571 c -166.75,0 -300.21,-140.942 -300.21,-299.391 0,-166.801 141.8,-300.238 300.21,-300.238 166.82,4.168 299.44,139.277 299.44,300.238 0,166.789 -140.94,299.391 -299.44,299.391"
         style="fill:#231f20;fill-opacity:1;fill-rule:nonzero;stroke:none"
         id="path36" />
      <path
         d="m 7915.89,693.102 h -135.1 v 199.32 h 135.1 c 63.38,0 107.62,-32.531 107.62,-99.242 0,-63.391 -44.24,-100.078 -107.62,-100.078 z m 0,256.027 H 7720.73 V 369.512 h 60.06 v 266.867 h 135.1 c 98.42,0 171.01,59.223 171.01,156.801 0,93.402 -72.59,155.949 -171.01,155.949"
         style="fill:#231f20;fill-opacity:1;fill-rule:nonzero;stroke:none"
         id="path38" />
      <path
         d="m 8287.86,892.422 h 166.84 v -522.91 h 60.04 v 522.91 h 166.79 v 56.707 h -393.67 v -56.707"
         style="fill:#231f20;fill-opacity:1;fill-rule:nonzero;stroke:none"
         id="path40" />
      <path
         d="m 8930.11,369.512 h 61.72 v 579.617 h -61.72 V 369.512"
         style="fill:#231f20;fill-opacity:1;fill-rule:nonzero;stroke:none"
         id="path42" />
      <path
         d="m 9563.1,419.57 c -131.76,0 -236.86,108.41 -236.86,240.18 0,130.93 105.1,239.34 236.86,239.34 130.91,0 235.97,-108.41 235.97,-239.34 0,-131.77 -105.06,-240.18 -235.97,-240.18 z m 0,539.571 c -166.78,0 -300.22,-140.942 -300.22,-299.391 0,-166.801 141.78,-300.238 300.22,-300.238 166.77,4.168 299.35,139.277 299.35,300.238 0,166.789 -140.94,299.391 -299.35,299.391"
         style="fill:#231f20;fill-opacity:1;fill-rule:nonzero;stroke:none"
         id="path44" />
      <path
         d="m 10548.8,506.289 -411.9,459.52 V 369.512 h 60 v 442.847 l 412,-459.519 v 596.289 h -60.1 v -442.84"
         style="fill:#231f20;fill-opacity:1;fill-rule:nonzero;stroke:none"
         id="path46" />
      <path
         d="m 11107.1,686.441 -95,36.688 c -55.9,21.68 -75.9,52.531 -75.9,85.891 0,34.191 24.2,90.07 104.2,90.07 45.9,0 86,-21.68 127.7,-51.711 l 31.7,55.051 c -55.1,39.199 -94.3,56.711 -159.4,56.711 -92.5,0 -167.6,-57.551 -167.6,-150.121 0,-77.559 46.7,-120.079 123.5,-148.442 l 87.5,-32.527 c 51.7,-20.02 78.4,-62.539 78.4,-108.41 0,-54.211 -49.2,-100.071 -110.1,-100.071 -69.2,0 -135.1,30.86 -181.8,65.039 l -31.7,-55.027 c 65.1,-45.043 147.6,-70.07 213.5,-70.07 91,0 173.5,59.226 173.5,160.129 0,68.39 -27.5,130.918 -118.5,166.8"
         style="fill:#231f20;fill-opacity:1;fill-rule:nonzero;stroke:none"
         id="path48" />
      <path
         d="m 2511.98,2665.81 c 253.13,0 459.18,-206.07 459.18,-459.2 0,-253.12 -206.05,-459.21 -459.18,-459.21 -253.49,0 -459.2,206.09 -459.2,459.21 0,253.13 205.71,459.2 459.2,459.2"
         style="fill:#f9f0ed;fill-opacity:1;fill-rule:nonzero;stroke:none"
         id="path50" />
      <path
         d="m 3499.31,3053.51 c -21.16,0 -39.75,5.47 -56.18,16.04 -59.43,39.4 -64.2,141.54 -10.19,223.6 37.91,57.27 98.11,94.47 153.18,94.47 21.15,0 40.12,-5.46 56.53,-16.03 26.64,-17.9 43.41,-48.89 47.42,-87.92 4,-44.13 -9.51,-93.73 -37.21,-135.67 -37.93,-57.63 -98.11,-94.49 -153.55,-94.49"
         style="fill:#d39387;fill-opacity:1;fill-rule:nonzero;stroke:none"
         id="path52" />
      <path
         d="m 2533.49,3072.86 c 266.27,0 471.23,-78.42 609.47,-233.08 255.31,-285.58 206.45,-744.78 205.72,-749.89 -46.7,-447.15 -443.16,-924.97 -828.69,-1214.558 -417.97,292.868 -830.86,770.298 -841.82,1210.558 0,4.72 -20.04,471.96 253.52,759.36 143.69,151.02 346.13,227.61 601.8,227.61 m -21.51,-1471.35 c 333.36,0 605.08,271.38 605.08,605.1 0,333.73 -271.72,605.09 -605.08,605.09 -333.75,0 -605.12,-271.36 -605.12,-605.09 0,-333.72 271.37,-605.1 605.12,-605.1"
         style="fill:#d39387;fill-opacity:1;fill-rule:nonzero;stroke:none"
         id="path54" />
      <path
         d="m 2862.12,3421.91 c -41.56,10.22 -76.58,41.2 -98.12,87.17 -24.42,51.79 -29.56,114.53 -14.22,177.25 25.91,106.51 108.31,187.12 191.13,187.12 10.19,0 20.41,-1.1 30.25,-3.64 91.94,-22.27 142.27,-141.16 112.35,-264.43 -29.18,-119.64 -130.57,-205.36 -221.39,-183.47"
         style="fill:#d39387;fill-opacity:1;fill-rule:nonzero;stroke:none"
         id="path56" />
      <path
         d="m 1532.67,2080.42 c 7.65,-322.8 239.61,-846.19 860.41,-1294.068 -85.35,-55.821 -169.61,-101.77 -246.94,-134.961 -401.56,-172.532 -802.03,-208.653 -1066.83,-208.653 -209.009,0 -372.037,21.903 -453.384,35.391 V 3710.42 L 2532.76,5363.38 4397.67,3710.77 V 483.969 c -69.32,-5.84 -190.41,-13.5 -340.32,-13.5 -304.92,0 -749.16,31.359 -1133.24,181.64 -86.05,33.551 -179.8,80.602 -274.65,138.602 374.24,293.239 791.49,779.799 844.38,1283.129 2.56,21.16 57.26,527.06 -241.45,862.59 -167.05,187.49 -408.87,282.32 -718.9,282.32 -297.62,0 -535.79,-91.92 -708.3,-273.93 -316.61,-333.36 -293.64,-844.71 -292.52,-864.4 m 265.88,1490.29 c 41.95,-172.89 182.01,-298.35 332.63,-298.35 21.9,0 43.42,2.56 64.57,7.66 85.35,20.8 155,80.24 195.86,167.05 38.67,81.71 47.05,178.71 24.08,273.54 -42.32,173.26 -182.03,298.72 -333.01,298.72 -21.89,0 -43.41,-2.54 -64.55,-7.65 -170.35,-41.57 -268.82,-239.27 -219.58,-440.97 m -274.26,-663.1 c 49.59,0 96.64,13.88 136.38,40.13 128.03,84.25 151,275.37 51.8,425.66 -65.29,98.85 -170.68,160.12 -275.02,160.12 -49.59,0 -96.64,-13.86 -136.78,-40.49 -127.63,-84.25 -150.97,-275.02 -51.4,-425.29 64.92,-98.85 170.33,-160.13 275.02,-160.13 m 1107.67,539.46 c 40.86,-86.81 110.51,-146.25 195.86,-167.05 21.17,-5.1 42.68,-7.66 64.57,-7.66 150.63,0 290.68,125.46 332.99,298.35 48.89,201.7 -49.59,399.4 -219.92,440.97 -21.15,5.11 -42.68,7.65 -64.55,7.65 -150.65,0 -290.73,-125.46 -333.01,-298.72 -22.99,-94.83 -14.57,-191.83 24.06,-273.54 m 679.14,-73.67 c -99.2,-150.29 -75.88,-341.41 51.8,-425.66 39.77,-26.25 87.15,-40.13 136.41,-40.13 104.69,0 210.07,61.28 275.37,159.78 46.32,70.75 67.85,152.1 60.54,230.14 -8.02,83.51 -47.77,153.19 -112.32,195.5 -39.77,26.63 -87.19,40.49 -136.78,40.49 -104.33,0 -209.72,-61.27 -275.02,-160.12"
         style="fill:#f9f0ed;fill-opacity:1;fill-rule:nonzero;stroke:none"
         id="path58" />
      <path
         d="m 1940.07,3605.38 c -29.9,123.28 20.43,242.16 112.34,264.43 9.84,2.54 20.06,3.64 30.27,3.64 83.15,0 165.22,-80.61 191.12,-187.12 15.31,-62.72 10.23,-125.46 -14.24,-177.25 -21.5,-45.97 -56.52,-76.95 -98.11,-87.17 -9.84,-2.55 -20.03,-3.66 -30.27,-3.66 -82.79,0 -165.21,80.25 -191.11,187.13"
         style="fill:#d39387;fill-opacity:1;fill-rule:nonzero;stroke:none"
         id="path60" />
      <path
         d="m 1580.46,3069.55 c -16.07,-10.57 -35.02,-16.04 -56.17,-16.04 -55.45,0 -115.63,36.86 -153.56,94.49 -53.98,81.67 -49.26,184.18 10.59,223.59 16.03,10.57 35,16.03 56.13,16.03 55.1,0 115.28,-37.2 153.21,-94.47 53.98,-82.06 49.23,-184.2 -10.2,-223.6"
         style="fill:#d39387;fill-opacity:1;fill-rule:nonzero;stroke:none"
         id="path62" />
      <path
         d="m 4397.67,483.879 c -69.36,-5.731 -190.28,-13.379 -340.45,-13.379 -304.92,0 -749.07,31.469 -1133.27,181.48 -86.05,33.579 -179.54,80.879 -274.45,138.622 374.32,293.258 791.64,779.908 844.34,1283.148 2.5,21.38 57.3,527.15 -241.45,862.57 -167.03,187.52 -408.94,282.59 -719.04,282.59 -297.38,0 -535.67,-92.19 -708.22,-274.02 -316.49,-333.43 -293.65,-844.92 -292.62,-864.51 7.89,-322.6 239.88,-846.34 860.72,-1294.142 C 2307.57,730.512 2223.41,684.512 2145.97,651.281 1744.44,478.91 1344.27,442.73 1079.31,442.73 c -209.029,0 -372.017,21.801 -453.326,35.379 V 3710.31 L 2532.82,5363.25 4397.67,3710.79 V 483.879 M 2520.19,875.211 c -418.07,292.829 -831.1,770.459 -841.9,1210.659 -0.2,4.7 -20.12,471.96 253.26,759.23 143.89,151.23 346.37,227.91 601.8,227.91 266.33,0 471.43,-78.42 609.53,-233.1 255.29,-285.89 206.56,-744.84 205.96,-750.15 C 3302,1642.71 2905.67,1165.03 2520.19,875.211 M 4543.58,352.859 V 3776.42 L 2533.88,5557.23 480.09,3776.91 V 359.32 l 56.797,-12.89 c 8.926,-2.039 222.734,-49.621 542.423,-49.602 405.29,0 783.55,74.172 1124.22,220.371 100.23,43.031 209.86,104.981 319.53,180.403 119.17,-76.512 238.61,-138.883 347.83,-181.543 405.35,-158.25 868.91,-191.45 1186.33,-191.45 247.75,0 415.07,19.7 422.1,20.551 l 64.26,7.699"
         style="fill:#231f20;fill-opacity:1;fill-rule:nonzero;stroke:none"
         id="path64" />
      <path
         d="m 2511.81,1747.34 c -253.19,0 -459.2,206.01 -459.2,459.2 0,253.2 206.01,459.18 459.2,459.18 253.2,0 459.2,-205.98 459.2,-459.18 0,-253.19 -206,-459.2 -459.2,-459.2 m 605.07,459.2 c 0,333.63 -271.44,605.08 -605.07,605.08 -333.64,0 -605.1,-271.45 -605.1,-605.08 0,-333.64 271.46,-605.09 605.1,-605.09 333.63,0 605.07,271.45 605.07,605.09"
         style="fill:#231f20;fill-opacity:1;fill-rule:nonzero;stroke:none"
         id="path66" />
      <path
         d="m 2749.83,3686.33 c 25.94,106.66 108.11,187.05 191.21,187.05 10.12,0 20.22,-1.2 30.03,-3.6 92.01,-22.38 142.44,-141.05 112.44,-264.51 -29.11,-119.64 -130.69,-205.35 -221.29,-183.42 -41.64,10.12 -76.55,41.16 -98.32,87.4 -24.28,51.59 -29.26,114.47 -14.07,177.08 m 77.93,-406.24 c 21.1,-5.13 42.81,-7.73 64.55,-7.73 150.84,0 290.9,125.5 332.95,298.45 49.01,201.62 -49.57,399.34 -219.7,440.75 -21.1,5.12 -42.8,7.72 -64.52,7.72 -150.91,0 -290.93,-125.54 -332.96,-298.48 -23.03,-94.87 -14.59,-192.07 23.82,-273.71 40.96,-86.95 110.49,-146.27 195.86,-167"
         style="fill:#231f20;fill-opacity:1;fill-rule:nonzero;stroke:none"
         id="path68" />
      <path
         d="m 2259.74,3509.26 c -21.78,-46.25 -56.72,-77.29 -98.38,-87.41 -9.85,-2.38 -19.94,-3.6 -30.08,-3.6 -83.05,0 -165.24,80.41 -191.11,186.99 -30,123.5 20.41,242.16 112.36,264.54 9.84,2.4 19.96,3.6 30.12,3.6 83.04,0 165.25,-80.42 191.19,-187.05 15.21,-62.61 10.19,-125.49 -14.1,-177.07 m -177.09,510.02 c -21.74,0 -43.46,-2.6 -64.59,-7.72 -170.12,-41.41 -268.64,-239.13 -219.67,-440.75 41.99,-172.92 182.03,-298.44 332.89,-298.45 h 0.04 c 21.7,0 43.42,2.6 64.47,7.73 85.39,20.73 154.98,80.03 195.94,167 38.44,81.6 46.91,178.8 23.87,273.71 -42.07,172.94 -182.09,298.48 -332.95,298.48"
         style="fill:#231f20;fill-opacity:1;fill-rule:nonzero;stroke:none"
         id="path70" />
      <path
         d="m 3432.9,3293.02 c 37.93,57.44 98.16,94.54 153.38,94.54 21.11,0 40.02,-5.42 56.23,-16.13 26.86,-17.72 43.67,-48.9 47.38,-87.81 4.24,-44.12 -9.29,-93.57 -37.13,-135.7 -37.89,-57.42 -98.04,-94.52 -153.3,-94.52 -21.15,0 -40.06,5.42 -56.27,16.1 -59.57,39.36 -64.26,141.72 -10.29,223.52 m -70.08,-345.28 c 39.91,-26.32 87.15,-40.23 136.64,-40.23 104.52,0 209.94,61.34 275.06,160.04 46.5,70.43 68.03,152.1 60.63,229.93 -7.99,83.7 -47.84,153.18 -112.25,195.69 -39.88,26.34 -87.13,40.28 -136.62,40.28 -104.49,0 -209.86,-61.31 -275.12,-160.05 -99.26,-150.38 -76.05,-341.32 51.66,-425.66"
         style="fill:#231f20;fill-opacity:1;fill-rule:nonzero;stroke:none"
         id="path72" />
      <path
         d="m 1580.48,3069.52 c -16.19,-10.7 -35.16,-16.12 -56.27,-16.12 -55.26,0 -115.45,37.1 -153.34,94.55 -54,81.8 -49.3,184.14 10.25,223.48 16.21,10.71 35.16,16.13 56.29,16.13 55.22,0 115.39,-37.12 153.32,-94.48 53.99,-81.86 49.28,-184.22 -10.25,-223.56 m -143.07,463.93 c -49.51,0 -96.78,-13.94 -136.66,-40.28 -127.73,-84.33 -150.9,-275.26 -51.62,-425.61 65.14,-98.71 170.53,-160.05 275.08,-160.05 49.51,0 96.74,13.91 136.62,40.25 127.71,84.33 150.9,275.26 51.66,425.7 -65.25,98.68 -170.65,159.99 -275.08,159.99"
         style="fill:#231f20;fill-opacity:1;fill-rule:nonzero;stroke:none"
         id="path74" />
      <path
         d="m 2764.4,3508.23 c -0.03,0.06 -0.07,0.13 -0.1,0.2 0.03,-0.07 0.07,-0.13 0.1,-0.2 m -0.19,0.39 c -0.07,0.16 -0.14,0.31 -0.21,0.46 -4.01,8.49 -7.49,17.28 -10.45,26.31 v 0 c 2.96,-9.03 6.44,-17.82 10.45,-26.31 0.07,-0.15 0.14,-0.3 0.21,-0.46"
         style="fill:#d39388;fill-opacity:1;fill-rule:nonzero;stroke:none"
         id="path76" />
      <path
         d="m 2825.58,3438.06 c -25.07,15.42 -46.39,39 -61.18,70.17 -0.03,0.07 -0.07,0.13 -0.1,0.2 -0.03,0.06 -0.06,0.13 -0.09,0.19 -0.07,0.16 -0.14,0.31 -0.21,0.46 -4.01,8.49 -7.49,17.28 -10.45,26.31 -0.01,0.01 -0.01,0.02 -0.02,0.04 -0.01,0.04 -0.02,0.08 -0.04,0.12 -14.96,45.95 -16.35,98.46 -3.66,150.78 7.34,30.19 19.19,58.28 34.29,83.03 18.18,29.76 41.07,54.74 66.45,72.75 28.06,19.88 59.2,31.27 90.47,31.27 10.12,0 20.22,-1.2 30.03,-3.6 18.98,-4.62 36.2,-13.34 51.31,-25.35 13.21,-10.58 24.8,-23.7 34.56,-38.79 -11.6,7.18 -24.1,12.8 -37.65,16.07 -9.87,2.54 -20.08,3.63 -30.3,3.63 -82.77,0 -165.21,-80.61 -191.11,-187.11 -15.31,-62.72 -10.21,-125.46 14.24,-177.25 3.91,-8.34 8.71,-15.6 13.46,-22.92"
         style="fill:#b56059;fill-opacity:1;fill-rule:nonzero;stroke:none"
         id="path78" />
      <path
         d="m 2753.55,3535.39 c -0.01,0.01 -0.01,0.02 -0.02,0.04 v 0 c 0.01,-0.02 0.01,-0.03 0.02,-0.04 v 0 m -0.06,0.16 c -15.05,46.02 -16.52,98.41 -3.71,150.78 7.34,30.17 19.21,58.26 34.34,83.03 -15.1,-24.75 -26.95,-52.84 -34.29,-83.03 -12.69,-52.32 -11.3,-104.83 3.66,-150.78 v 0 m 97.08,306.56 c 28.06,19.92 59.17,31.34 90.34,31.34 10.19,0 20.41,-1.1 30.25,-3.64 18.99,-4.59 36.16,-13.33 51.22,-25.38 -15.11,12.01 -32.33,20.73 -51.31,25.35 -9.81,2.4 -19.91,3.6 -30.03,3.6 -31.27,0 -62.41,-11.39 -90.47,-31.27"
         style="fill:#1c100c;fill-opacity:1;fill-rule:nonzero;stroke:none"
         id="path80" />
      <path
         d="m 2037.24,3452.56 c -32.15,23.87 -60.11,58.8 -79.14,100.59 -7.44,16.42 -13.51,33.87 -17.93,52.09 -30,123.5 20.41,242.16 112.36,264.54 9.84,2.4 19.96,3.6 30.12,3.6 28.7,0 57.31,-9.61 83.52,-26.59 21.55,-14 41.46,-32.98 58.51,-55.68 -28.95,21.51 -61.27,34.23 -93.89,34.23 -10.23,0 -20.43,-1.08 -30.27,-3.63 -91.92,-22.27 -142.25,-141.16 -112.35,-264.44 9.57,-39.47 26.92,-75.2 49.07,-104.71"
         style="fill:#b56059;fill-opacity:1;fill-rule:nonzero;stroke:none"
         id="path82" />
      <path
         d="m 1958.1,3553.15 c -7.49,16.43 -13.6,33.93 -18.03,52.23 -29.9,123.28 20.43,242.16 112.34,264.43 9.84,2.54 20.06,3.64 30.27,3.64 28.74,0 57.32,-9.65 83.49,-26.66 -26.21,16.98 -54.82,26.59 -83.52,26.59 -10.16,0 -20.28,-1.2 -30.12,-3.6 -91.95,-22.38 -142.36,-141.04 -112.36,-264.54 4.42,-18.22 10.49,-35.67 17.93,-52.09"
         style="fill:#1c100c;fill-opacity:1;fill-rule:nonzero;stroke:none"
         id="path84" />
      <path
         d="m 3117.06,2207.55 c 0,0.12 0,0.25 0,0.37 0,-0.14 0,-0.23 0,-0.37 m 0,0.93 c 0,0.17 0,0.35 0,0.53 0,-0.16 0,-0.37 0,-0.53 m -0.01,0.91 c 0,0.22 0,0.42 0,0.64 0,-0.2 0,-0.43 0,-0.64 m 0,0.9 c 0,0.27 0,0.52 -0.01,0.79 0.01,-0.27 0.01,-0.52 0.01,-0.79 m -0.01,0.87 c -0.4,53.99 -7.98,106.26 -21.78,155.96 -24.69,89.6 -69.51,170.92 -129.28,238.81 0.31,-0.28 0.6,-0.55 0.9,-0.82 92.5,-105.45 149.04,-243.23 150.16,-393.95"
         style="fill:#d39388;fill-opacity:1;fill-rule:nonzero;stroke:none"
         id="path86" />
      <path
         d="m 2560.09,1553.41 c -176.64,0 -335.33,76.45 -446.03,197.5 106.44,-93.03 245.63,-149.46 397.75,-149.46 130.97,0 252.38,41.84 351.52,112.85 153.45,109.86 253.73,289.58 253.73,492.31 v 0 0 0 c 0,0.31 0,0.63 0,0.94 0,0.14 0,0.23 0,0.37 0,0.19 0,0.37 0,0.56 0,0.16 0,0.37 0,0.53 0,0.12 -0.01,0.26 -0.01,0.38 0,0.21 0,0.44 0,0.64 0,0.09 0,0.18 0,0.26 0,0.27 0,0.52 -0.01,0.79 0,0.02 0,0.05 0,0.08 -1.12,150.72 -57.66,288.5 -150.16,393.95 121.46,-110.74 198.29,-269.67 198.29,-446.6 0,-333.74 -271.72,-605.1 -605.08,-605.1"
         style="fill:#b56059;fill-opacity:1;fill-rule:nonzero;stroke:none"
         id="path88" />
      <path
         d="m 2511.81,1601.45 c -152.12,0 -291.31,56.43 -397.75,149.46 -1.54,1.68 -3.07,3.38 -4.6,5.08 107.07,-95.71 247.85,-154.48 402.52,-154.48 130.85,0 252.2,41.81 351.35,112.79 -99.14,-71.01 -220.55,-112.85 -351.52,-112.85 m 583.45,765.67 c -25.28,90.97 -71.43,173.34 -132.71,241.9 1.15,-1.03 2.29,-2.06 3.43,-3.09 59.77,-67.89 104.59,-149.21 129.28,-238.81"
         style="fill:#1c100c;fill-opacity:1;fill-rule:nonzero;stroke:none"
         id="path90" />
      <path
         d="m 1426.98,3088.87 c -12.19,8.92 -23.78,19.28 -34.39,30.96 -7.82,8.69 -15.11,18.1 -21.72,28.12 -54,81.8 -49.3,184.14 10.25,223.48 16.21,10.71 35.16,16.13 56.29,16.13 13.09,0 26.46,-2.09 39.74,-6.04 38.94,-11.7 77.12,-39.57 105.52,-77.59 -30.41,22.38 -64.61,35.58 -97.11,35.58 -21.14,0 -40.1,-5.45 -56.16,-16.04 -59.8,-39.39 -64.55,-141.89 -10.56,-223.58 2.54,-3.85 5.41,-7.36 8.14,-11.02"
         style="fill:#b56059;fill-opacity:1;fill-rule:nonzero;stroke:none"
         id="path92" />
      <path
         d="m 1392.59,3119.83 c -7.88,8.68 -15.22,18.08 -21.86,28.17 -53.98,81.67 -49.26,184.18 10.59,223.59 16.03,10.57 35,16.03 56.13,16.03 13.09,0 26.44,-2.11 39.7,-6.1 -13.28,3.95 -26.65,6.04 -39.74,6.04 -21.13,0 -40.08,-5.42 -56.29,-16.13 -59.55,-39.34 -64.25,-141.68 -10.25,-223.48 6.61,-10.02 13.9,-19.43 21.72,-28.12"
         style="fill:#1c100c;fill-opacity:1;fill-rule:nonzero;stroke:none"
         id="path94" />
      <path
         d="m 3456.22,3063.59 c -4.36,2 -9,3.33 -13.09,5.96 v 0 c -31.69,21.01 -47.83,59.86 -47.82,103.98 0.01,29.25 7.13,60.83 21.52,91.06 4.61,9.66 9.97,19.18 16.07,28.43 37.93,57.44 98.16,94.54 153.38,94.54 21.11,0 40.02,-5.42 56.23,-16.13 4.37,-2.88 8.47,-6.12 12.3,-9.69 9.18,-8.89 16.63,-19.8 22.46,-32.17 -13.18,5.94 -27.28,9.94 -43.06,9.94 -55.06,0 -115.25,-37.19 -153.18,-94.46 -39.94,-60.73 -47.54,-132.3 -24.81,-181.46"
         style="fill:#b56059;fill-opacity:1;fill-rule:nonzero;stroke:none"
         id="path96" />
      <path
         d="m 3416.83,3264.59 c 4.62,9.7 9.99,19.26 16.11,28.56 37.91,57.27 98.11,94.47 153.18,94.47 21.15,0 40.12,-5.46 56.53,-16.03 4.35,-2.92 8.4,-6.22 12.16,-9.85 -3.83,3.57 -7.93,6.81 -12.3,9.69 -16.21,10.71 -35.12,16.13 -56.23,16.13 -55.22,0 -115.45,-37.1 -153.38,-94.54 -6.1,-9.25 -11.46,-18.77 -16.07,-28.43"
         style="fill:#1c100c;fill-opacity:1;fill-rule:nonzero;stroke:none"
         id="path98" />
      <path
         d="m 3143.18,2839.54 c -0.08,0.08 -0.14,0.16 -0.22,0.24 0.07,-0.08 0.15,-0.16 0.22,-0.24"
         style="fill:#d39388;fill-opacity:1;fill-rule:nonzero;stroke:none"
         id="path100" />
      <path
         d="m 2188.47,1150.56 c -169.26,165.23 -316.82,354.36 -409.18,548.71 -60.97,128.39 -97.87,259.08 -101,386.6 -0.08,1.83 -3.17,74.41 9.44,179.29 18.33,152.33 69.76,372.83 211.73,543.83 0.16,0.2 0.34,0.41 0.51,0.61 0.05,0.06 0.1,0.12 0.14,0.18 10.03,12.03 20.5,23.81 31.44,35.32 36.59,38.45 76.97,72.09 121.04,100.87 129.17,84.29 290.24,126.89 480.9,126.89 266.27,0 471.23,-78.42 609.47,-233.08 v 0 c 0.08,-0.08 0.14,-0.16 0.22,-0.24 0.77,-0.88 1.46,-1.78 2.24,-2.66 -136.27,124.41 -325.21,187.87 -563.81,187.87 -255.7,0 -458.12,-76.6 -601.82,-227.59 -273.55,-287.43 -253.49,-754.64 -253.49,-759.39 7.5,-302.11 204.32,-621.73 462.17,-887.21"
         style="fill:#b56059;fill-opacity:1;fill-rule:nonzero;stroke:none"
         id="path102" />
      <path
         d="m 1779.29,1699.27 c -61.01,128.39 -97.94,259.06 -101.12,386.62 0,1.84 -3.06,74.41 9.56,179.27 -12.61,-104.88 -9.52,-177.46 -9.44,-179.29 3.13,-127.52 40.03,-258.21 101,-386.6 m 120.17,1109.72 c 0.18,0.22 0.33,0.39 0.51,0.61 -0.17,-0.2 -0.35,-0.41 -0.51,-0.61 m 0.65,0.79 c 10.06,12.08 20.59,23.93 31.58,35.47 36.54,38.4 76.86,71.98 120.9,100.72 -44.07,-28.78 -84.45,-62.42 -121.04,-100.87 -10.94,-11.51 -21.41,-23.29 -31.44,-35.32"
         style="fill:#1c100c;fill-opacity:1;fill-rule:nonzero;stroke:none"
         id="path104" />
    </g>
  </g>
</svg>
